<?xml version="1.0" encoding="us-ascii" standalone="no"?><svg xmlns="http://www.w3.org/2000/svg" xmlns:xlink="http://www.w3.org/1999/xlink" contentStyleType="text/css" height="1245px" preserveAspectRatio="none" style="width:1131px;height:1245px;background:#FFFFFF;" version="1.1" viewBox="0 0 1131 1245" width="1131px" zoomAndPan="magnify"><defs/><g><!--cluster data--><g id="cluster_data"><path d="M747.5,1094 L786.5,1094 A3.75,3.75 0 0 1 789,1096.5 L796,1116.2969 L846.5,1116.2969 A2.5,2.5 0 0 1 849,1118.7969 L849,1186.5 A2.5,2.5 0 0 1 846.5,1189 L747.5,1189 A2.5,2.5 0 0 1 745,1186.5 L745,1096.5 A2.5,2.5 0 0 1 747.5,1094 " fill="#FFFFFF" style="stroke:#000000;stroke-width:1.0;"/><line style="stroke:#000000;stroke-width:1.0;" x1="745" x2="796" y1="1116.2969" y2="1116.2969"/><text fill="#000000" font-family="Verdana" font-size="14" font-weight="bold" lengthAdjust="spacing" textLength="38" x="749" y="1108.9951">data</text></g><!--class frame--><g id="elem_frame"><rect fill="#FFFFFF" height="44" id="frame" rx="2.5" ry="2.5" style="stroke:#000000;stroke-width:1.0;" width="71" x="761.5" y="1129"/><ellipse cx="774.5" cy="1143" fill="#FFFFFF" rx="9" ry="9" style="stroke:#000000;stroke-width:1.0;"/><path d="M776.8438,1138.6719 C775.9063,1138.2344 775.3125,1138.0938 774.4375,1138.0938 C771.8125,1138.0938 769.8125,1140.1719 769.8125,1142.8906 L769.8125,1144.0156 C769.8125,1146.5938 771.9219,1148.4844 774.8125,1148.4844 C776.0313,1148.4844 777.1875,1148.1875 777.9375,1147.6406 C778.5156,1147.2344 778.8438,1146.7813 778.8438,1146.3906 C778.8438,1145.9375 778.4531,1145.5469 777.9844,1145.5469 C777.7656,1145.5469 777.5625,1145.625 777.375,1145.8125 C776.9219,1146.2969 776.9219,1146.2969 776.7344,1146.3906 C776.3125,1146.6563 775.625,1146.7813 774.8594,1146.7813 C772.8125,1146.7813 771.5156,1145.6875 771.5156,1143.9844 L771.5156,1142.8906 C771.5156,1141.1094 772.7656,1139.7969 774.5,1139.7969 C775.0781,1139.7969 775.6875,1139.9531 776.1563,1140.2031 C776.6406,1140.4844 776.8125,1140.7031 776.9063,1141.1094 C776.9688,1141.5156 777,1141.6406 777.1406,1141.7656 C777.2813,1141.9063 777.5156,1142.0156 777.7344,1142.0156 C778,1142.0156 778.2656,1141.875 778.4375,1141.6563 C778.5469,1141.5 778.5781,1141.3125 778.5781,1140.8906 L778.5781,1139.4688 C778.5781,1139.0313 778.5625,1138.9063 778.4688,1138.75 C778.3125,1138.4844 778.0313,1138.3438 777.7344,1138.3438 C777.4375,1138.3438 777.2344,1138.4375 777.0156,1138.75 L776.8438,1138.6719 Z " fill="#000000"/><text fill="#000000" font-family="Verdana" font-size="14" lengthAdjust="spacing" textLength="43" x="786.5" y="1147.8467">frame</text><line style="stroke:#000000;stroke-width:1.0;" x1="762.5" x2="831.5" y1="1157" y2="1157"/><line style="stroke:#000000;stroke-width:1.0;" x1="762.5" x2="831.5" y1="1165" y2="1165"/></g><!--class SemImputedData--><g id="elem_SemImputedData"><rect codeLine="3" fill="#FFFFFF" height="141.7813" id="SemImputedData" rx="2.5" ry="2.5" style="stroke:#000000;stroke-width:1.0;" width="432" x="523" y="303"/><ellipse cx="671.75" cy="317" fill="#FFFFFF" rx="9" ry="9" style="stroke:#000000;stroke-width:1.0;"/><path d="M674.0938,312.6719 C673.1563,312.2344 672.5625,312.0938 671.6875,312.0938 C669.0625,312.0938 667.0625,314.1719 667.0625,316.8906 L667.0625,318.0156 C667.0625,320.5938 669.1719,322.4844 672.0625,322.4844 C673.2813,322.4844 674.4375,322.1875 675.1875,321.6406 C675.7656,321.2344 676.0938,320.7813 676.0938,320.3906 C676.0938,319.9375 675.7031,319.5469 675.2344,319.5469 C675.0156,319.5469 674.8125,319.625 674.625,319.8125 C674.1719,320.2969 674.1719,320.2969 673.9844,320.3906 C673.5625,320.6563 672.875,320.7813 672.1094,320.7813 C670.0625,320.7813 668.7656,319.6875 668.7656,317.9844 L668.7656,316.8906 C668.7656,315.1094 670.0156,313.7969 671.75,313.7969 C672.3281,313.7969 672.9375,313.9531 673.4063,314.2031 C673.8906,314.4844 674.0625,314.7031 674.1563,315.1094 C674.2188,315.5156 674.25,315.6406 674.3906,315.7656 C674.5313,315.9063 674.7656,316.0156 674.9844,316.0156 C675.25,316.0156 675.5156,315.875 675.6875,315.6563 C675.7969,315.5 675.8281,315.3125 675.8281,314.8906 L675.8281,313.4688 C675.8281,313.0313 675.8125,312.9063 675.7188,312.75 C675.5625,312.4844 675.2813,312.3438 674.9844,312.3438 C674.6875,312.3438 674.4844,312.4375 674.2656,312.75 L674.0938,312.6719 Z " fill="#000000"/><text fill="#000000" font-family="Verdana" font-size="14" lengthAdjust="spacing" textLength="127" x="689.25" y="321.8467">SemImputedData</text><line style="stroke:#000000;stroke-width:1.0;" x1="524" x2="954" y1="331" y2="331"/><ellipse cx="534" cy="344.6484" fill="none" rx="3" ry="3" style="stroke:#000000;stroke-width:1.0;"/><text fill="#000000" font-family="Verdana" font-size="14" lengthAdjust="spacing" textLength="75" x="541" y="347.9951">data: mids</text><ellipse cx="534" cy="360.9453" fill="none" rx="3" ry="3" style="stroke:#000000;stroke-width:1.0;"/><text fill="#000000" font-family="Verdana" font-size="14" lengthAdjust="spacing" textLength="188" x="541" y="364.292">method: String = "lavaan"</text><ellipse cx="534" cy="377.2422" fill="none" rx="3" ry="3" style="stroke:#000000;stroke-width:1.0;"/><text fill="#000000" font-family="Verdana" font-size="14" lengthAdjust="spacing" textLength="189" x="541" y="380.5889">conf_int: Boolean = FALSE</text><ellipse cx="534" cy="393.5391" fill="none" rx="3" ry="3" style="stroke:#000000;stroke-width:1.0;"/><text fill="#000000" font-family="Verdana" font-size="14" lengthAdjust="spacing" textLength="192" x="541" y="396.8857">conf_level: Numeric = 0.95</text><line style="stroke:#000000;stroke-width:1.0;" x1="524" x2="954" y1="404.1875" y2="404.1875"/><ellipse cx="534" cy="417.8359" fill="#FFFFFF" rx="3" ry="3" style="stroke:#000000;stroke-width:1.0;"/><text fill="#000000" font-family="Verdana" font-size="14" lengthAdjust="spacing" textLength="382" x="541" y="421.1826">SemImputedData(data, method, conf_int, conf_level)</text><ellipse cx="534" cy="434.1328" fill="#FFFFFF" rx="3" ry="3" style="stroke:#000000;stroke-width:1.0;"/><text fill="#000000" font-family="Verdana" font-size="14" lengthAdjust="spacing" textLength="408" x="541" y="437.4795">run_sem(data, method, conf_int, conf_level): SemResults</text></g><!--class SemResults--><g id="elem_SemResults"><rect codeLine="12" fill="#FFFFFF" height="190.6719" id="SemResults" rx="2.5" ry="2.5" style="stroke:#000000;stroke-width:1.0;" width="591" x="443.5" y="659"/><ellipse cx="693.25" cy="673" fill="#FFFFFF" rx="9" ry="9" style="stroke:#000000;stroke-width:1.0;"/><path d="M695.5938,668.6719 C694.6563,668.2344 694.0625,668.0938 693.1875,668.0938 C690.5625,668.0938 688.5625,670.1719 688.5625,672.8906 L688.5625,674.0156 C688.5625,676.5938 690.6719,678.4844 693.5625,678.4844 C694.7813,678.4844 695.9375,678.1875 696.6875,677.6406 C697.2656,677.2344 697.5938,676.7813 697.5938,676.3906 C697.5938,675.9375 697.2031,675.5469 696.7344,675.5469 C696.5156,675.5469 696.3125,675.625 696.125,675.8125 C695.6719,676.2969 695.6719,676.2969 695.4844,676.3906 C695.0625,676.6563 694.375,676.7813 693.6094,676.7813 C691.5625,676.7813 690.2656,675.6875 690.2656,673.9844 L690.2656,672.8906 C690.2656,671.1094 691.5156,669.7969 693.25,669.7969 C693.8281,669.7969 694.4375,669.9531 694.9063,670.2031 C695.3906,670.4844 695.5625,670.7031 695.6563,671.1094 C695.7188,671.5156 695.75,671.6406 695.8906,671.7656 C696.0313,671.9063 696.2656,672.0156 696.4844,672.0156 C696.75,672.0156 697.0156,671.875 697.1875,671.6563 C697.2969,671.5 697.3281,671.3125 697.3281,670.8906 L697.3281,669.4688 C697.3281,669.0313 697.3125,668.9063 697.2188,668.75 C697.0625,668.4844 696.7813,668.3438 696.4844,668.3438 C696.1875,668.3438 695.9844,668.4375 695.7656,668.75 L695.5938,668.6719 Z " fill="#000000"/><text fill="#000000" font-family="Verdana" font-size="14" lengthAdjust="spacing" textLength="84" x="710.75" y="677.8467">SemResults</text><line style="stroke:#000000;stroke-width:1.0;" x1="444.5" x2="1033.5" y1="687" y2="687"/><ellipse cx="454.5" cy="700.6484" fill="none" rx="3" ry="3" style="stroke:#000000;stroke-width:1.0;"/><text fill="#000000" font-family="Verdana" font-size="14" lengthAdjust="spacing" textLength="83" x="461.5" y="703.9951">results: List</text><ellipse cx="454.5" cy="716.9453" fill="none" rx="3" ry="3" style="stroke:#000000;stroke-width:1.0;"/><text fill="#000000" font-family="Verdana" font-size="14" lengthAdjust="spacing" textLength="175" x="461.5" y="720.292">estimate_df: DataFrame</text><ellipse cx="454.5" cy="733.2422" fill="none" rx="3" ry="3" style="stroke:#000000;stroke-width:1.0;"/><text fill="#000000" font-family="Verdana" font-size="14" lengthAdjust="spacing" textLength="142" x="461.5" y="736.5889">coef_df: DataFrame</text><ellipse cx="454.5" cy="749.5391" fill="none" rx="3" ry="3" style="stroke:#000000;stroke-width:1.0;"/><text fill="#000000" font-family="Verdana" font-size="14" lengthAdjust="spacing" textLength="82" x="461.5" y="752.8857">cov_df: List</text><ellipse cx="454.5" cy="765.8359" fill="none" rx="3" ry="3" style="stroke:#000000;stroke-width:1.0;"/><text fill="#000000" font-family="Verdana" font-size="14" lengthAdjust="spacing" textLength="110" x="461.5" y="769.1826">method: String</text><ellipse cx="454.5" cy="782.1328" fill="none" rx="3" ry="3" style="stroke:#000000;stroke-width:1.0;"/><text fill="#000000" font-family="Verdana" font-size="14" lengthAdjust="spacing" textLength="126" x="461.5" y="785.4795">conf_int: Boolean</text><ellipse cx="454.5" cy="798.4297" fill="none" rx="3" ry="3" style="stroke:#000000;stroke-width:1.0;"/><text fill="#000000" font-family="Verdana" font-size="14" lengthAdjust="spacing" textLength="141" x="461.5" y="801.7764">conf_level: Numeric</text><line style="stroke:#000000;stroke-width:1.0;" x1="444.5" x2="1033.5" y1="809.0781" y2="809.0781"/><ellipse cx="454.5" cy="822.7266" fill="#FFFFFF" rx="3" ry="3" style="stroke:#000000;stroke-width:1.0;"/><text fill="#000000" font-family="Verdana" font-size="14" lengthAdjust="spacing" textLength="567" x="461.5" y="826.0732">SemResults(results, estimate_df, coef_df, cov_df, method, conf_int, conf_level)</text><ellipse cx="454.5" cy="839.0234" fill="#FFFFFF" rx="3" ry="3" style="stroke:#000000;stroke-width:1.0;"/><text fill="#000000" font-family="Verdana" font-size="14" lengthAdjust="spacing" textLength="219" x="461.5" y="842.3701">pool_sem(): PooledSEMResults</text></g><!--class PooledSEMResults--><g id="elem_PooledSEMResults"><rect codeLine="24" fill="#FFFFFF" height="174.375" id="PooledSEMResults" rx="2.5" ry="2.5" style="stroke:#000000;stroke-width:1.0;" width="714" x="12" y="1064"/><ellipse cx="299.75" cy="1078" fill="#FFFFFF" rx="9" ry="9" style="stroke:#000000;stroke-width:1.0;"/><path d="M302.0938,1073.6719 C301.1563,1073.2344 300.5625,1073.0938 299.6875,1073.0938 C297.0625,1073.0938 295.0625,1075.1719 295.0625,1077.8906 L295.0625,1079.0156 C295.0625,1081.5938 297.1719,1083.4844 300.0625,1083.4844 C301.2813,1083.4844 302.4375,1083.1875 303.1875,1082.6406 C303.7656,1082.2344 304.0938,1081.7813 304.0938,1081.3906 C304.0938,1080.9375 303.7031,1080.5469 303.2344,1080.5469 C303.0156,1080.5469 302.8125,1080.625 302.625,1080.8125 C302.1719,1081.2969 302.1719,1081.2969 301.9844,1081.3906 C301.5625,1081.6563 300.875,1081.7813 300.1094,1081.7813 C298.0625,1081.7813 296.7656,1080.6875 296.7656,1078.9844 L296.7656,1077.8906 C296.7656,1076.1094 298.0156,1074.7969 299.75,1074.7969 C300.3281,1074.7969 300.9375,1074.9531 301.4063,1075.2031 C301.8906,1075.4844 302.0625,1075.7031 302.1563,1076.1094 C302.2188,1076.5156 302.25,1076.6406 302.3906,1076.7656 C302.5313,1076.9063 302.7656,1077.0156 302.9844,1077.0156 C303.25,1077.0156 303.5156,1076.875 303.6875,1076.6563 C303.7969,1076.5 303.8281,1076.3125 303.8281,1075.8906 L303.8281,1074.4688 C303.8281,1074.0313 303.8125,1073.9063 303.7188,1073.75 C303.5625,1073.4844 303.2813,1073.3438 302.9844,1073.3438 C302.6875,1073.3438 302.4844,1073.4375 302.2656,1073.75 L302.0938,1073.6719 Z " fill="#000000"/><text fill="#000000" font-family="Verdana" font-size="14" lengthAdjust="spacing" textLength="131" x="317.25" y="1082.8467">PooledSEMResults</text><line style="stroke:#000000;stroke-width:1.0;" x1="13" x2="725" y1="1092" y2="1092"/><ellipse cx="23" cy="1105.6484" fill="none" rx="3" ry="3" style="stroke:#000000;stroke-width:1.0;"/><text fill="#000000" font-family="Verdana" font-size="14" lengthAdjust="spacing" textLength="161" x="30" y="1108.9951">tidy_table: DataFrame</text><ellipse cx="23" cy="1121.9453" fill="none" rx="3" ry="3" style="stroke:#000000;stroke-width:1.0;"/><text fill="#000000" font-family="Verdana" font-size="14" lengthAdjust="spacing" textLength="121" x="30" y="1125.292">cov_total: Matrix</text><ellipse cx="23" cy="1138.2422" fill="none" rx="3" ry="3" style="stroke:#000000;stroke-width:1.0;"/><text fill="#000000" font-family="Verdana" font-size="14" lengthAdjust="spacing" textLength="150" x="30" y="1141.5889">cov_between: Matrix</text><ellipse cx="23" cy="1154.5391" fill="none" rx="3" ry="3" style="stroke:#000000;stroke-width:1.0;"/><text fill="#000000" font-family="Verdana" font-size="14" lengthAdjust="spacing" textLength="130" x="30" y="1157.8857">cov_within: Matrix</text><ellipse cx="23" cy="1170.8359" fill="none" rx="3" ry="3" style="stroke:#000000;stroke-width:1.0;"/><text fill="#000000" font-family="Verdana" font-size="14" lengthAdjust="spacing" textLength="110" x="30" y="1174.1826">method: String</text><ellipse cx="23" cy="1187.1328" fill="none" rx="3" ry="3" style="stroke:#000000;stroke-width:1.0;"/><text fill="#000000" font-family="Verdana" font-size="14" lengthAdjust="spacing" textLength="126" x="30" y="1190.4795">conf_int: Boolean</text><ellipse cx="23" cy="1203.4297" fill="none" rx="3" ry="3" style="stroke:#000000;stroke-width:1.0;"/><text fill="#000000" font-family="Verdana" font-size="14" lengthAdjust="spacing" textLength="141" x="30" y="1206.7764">conf_level: Numeric</text><line style="stroke:#000000;stroke-width:1.0;" x1="13" x2="725" y1="1214.0781" y2="1214.0781"/><ellipse cx="23" cy="1227.7266" fill="#FFFFFF" rx="3" ry="3" style="stroke:#000000;stroke-width:1.0;"/><text fill="#000000" font-family="Verdana" font-size="14" lengthAdjust="spacing" textLength="690" x="30" y="1231.0732">PooledSEMResults(tidy_table, cov_total, cov_between, cov_within, method, conf_int, conf_level)</text></g><!--class mids--><g id="elem_mids"><rect codeLine="35" fill="#FFFFFF" height="76.5938" id="mids" rx="2.5" ry="2.5" style="stroke:#000000;stroke-width:1.0;" width="471" x="503.5" y="12"/><ellipse cx="718.25" cy="26" fill="#FFFFFF" rx="9" ry="9" style="stroke:#000000;stroke-width:1.0;"/><path d="M720.5938,21.6719 C719.6563,21.2344 719.0625,21.0938 718.1875,21.0938 C715.5625,21.0938 713.5625,23.1719 713.5625,25.8906 L713.5625,27.0156 C713.5625,29.5938 715.6719,31.4844 718.5625,31.4844 C719.7813,31.4844 720.9375,31.1875 721.6875,30.6406 C722.2656,30.2344 722.5938,29.7813 722.5938,29.3906 C722.5938,28.9375 722.2031,28.5469 721.7344,28.5469 C721.5156,28.5469 721.3125,28.625 721.125,28.8125 C720.6719,29.2969 720.6719,29.2969 720.4844,29.3906 C720.0625,29.6563 719.375,29.7813 718.6094,29.7813 C716.5625,29.7813 715.2656,28.6875 715.2656,26.9844 L715.2656,25.8906 C715.2656,24.1094 716.5156,22.7969 718.25,22.7969 C718.8281,22.7969 719.4375,22.9531 719.9063,23.2031 C720.3906,23.4844 720.5625,23.7031 720.6563,24.1094 C720.7188,24.5156 720.75,24.6406 720.8906,24.7656 C721.0313,24.9063 721.2656,25.0156 721.4844,25.0156 C721.75,25.0156 722.0156,24.875 722.1875,24.6563 C722.2969,24.5 722.3281,24.3125 722.3281,23.8906 L722.3281,22.4688 C722.3281,22.0313 722.3125,21.9063 722.2188,21.75 C722.0625,21.4844 721.7813,21.3438 721.4844,21.3438 C721.1875,21.3438 720.9844,21.4375 720.7656,21.75 L720.5938,21.6719 Z " fill="#000000"/><text fill="#000000" font-family="Verdana" font-size="14" lengthAdjust="spacing" textLength="34" x="735.75" y="30.8467">mids</text><line style="stroke:#000000;stroke-width:1.0;" x1="504.5" x2="973.5" y1="40" y2="40"/><ellipse cx="514.5" cy="53.6484" fill="none" rx="3" ry="3" style="stroke:#000000;stroke-width:1.0;"/><text fill="#000000" font-family="Verdana" font-size="14" lengthAdjust="spacing" textLength="120" x="521.5" y="56.9951">data: DataFrame</text><line style="stroke:#000000;stroke-width:1.0;" x1="504.5" x2="973.5" y1="64.2969" y2="64.2969"/><ellipse cx="514.5" cy="77.9453" fill="#FFFFFF" rx="3" ry="3" style="stroke:#000000;stroke-width:1.0;"/><text fill="#000000" font-family="Verdana" font-size="14" lengthAdjust="spacing" textLength="447" x="521.5" y="81.292">set_sem(data, method, conf_int, conf_level):SemImputedData</text></g><!--class pool_sem--><g id="elem_pool_sem"><rect codeLine="42" fill="#FFFFFF" height="60.2969" id="pool_sem" rx="2.5" ry="2.5" style="stroke:#000000;stroke-width:1.0;" width="327" x="228.5" y="927"/><ellipse cx="354.25" cy="941" fill="#FFFFFF" rx="9" ry="9" style="stroke:#000000;stroke-width:1.0;"/><path d="M355.2031,937.7813 L356.9219,937.7813 C357.3125,937.7813 357.5,937.75 357.625,937.6719 C357.8906,937.5156 358.0313,937.2344 358.0313,936.9375 C358.0313,936.6719 357.9219,936.4063 357.6875,936.2344 C357.5156,936.125 357.375,936.0938 356.9219,936.0938 L351.7813,936.0938 C351.3438,936.0938 351.2188,936.1094 351.0625,936.2031 C350.8125,936.3594 350.6563,936.6563 350.6563,936.9375 C350.6563,937.2188 350.7969,937.4688 351.0156,937.6406 C351.1719,937.75 351.3594,937.7813 351.7813,937.7813 L353.5,937.7813 L353.5,944.2969 L351.7813,944.2969 C351.3438,944.2969 351.2188,944.3125 351.0625,944.4219 C350.8125,944.5781 350.6563,944.8594 350.6563,945.1563 C350.6563,945.4063 350.7969,945.6719 351.0156,945.8281 C351.1719,945.9531 351.375,946 351.7813,946 L356.9219,946 C357.6719,946 358.0313,945.7188 358.0313,945.1563 C358.0313,944.875 357.9219,944.625 357.6875,944.4531 C357.5156,944.3281 357.375,944.2969 356.9219,944.2969 L355.2031,944.2969 L355.2031,937.7813 Z " fill="#000000"/><text fill="#000000" font-family="Verdana" font-size="14" font-style="italic" lengthAdjust="spacing" textLength="68" x="371.75" y="945.8467">pool_sem</text><line style="stroke:#000000;stroke-width:1.0;" x1="229.5" x2="554.5" y1="955" y2="955"/><line style="stroke:#000000;stroke-width:1.0;" x1="229.5" x2="554.5" y1="963" y2="963"/><ellipse cx="239.5" cy="976.6484" fill="#FFFFFF" rx="3" ry="3" style="stroke:#000000;stroke-width:1.0;"/><text fill="#000000" font-family="Verdana" font-size="14" lengthAdjust="spacing" textLength="303" x="246.5" y="979.9951">pool_sem(SemResults): PooledSEMResults</text></g><!--class pool_tidy--><g id="elem_pool_tidy"><rect codeLine="46" fill="#FFFFFF" height="60.2969" id="pool_tidy" rx="2.5" ry="2.5" style="stroke:#000000;stroke-width:1.0;" width="274" x="602" y="927"/><ellipse cx="703.25" cy="941" fill="#FFFFFF" rx="9" ry="9" style="stroke:#000000;stroke-width:1.0;"/><path d="M704.2031,937.7813 L705.9219,937.7813 C706.3125,937.7813 706.5,937.75 706.625,937.6719 C706.8906,937.5156 707.0313,937.2344 707.0313,936.9375 C707.0313,936.6719 706.9219,936.4063 706.6875,936.2344 C706.5156,936.125 706.375,936.0938 705.9219,936.0938 L700.7813,936.0938 C700.3438,936.0938 700.2188,936.1094 700.0625,936.2031 C699.8125,936.3594 699.6563,936.6563 699.6563,936.9375 C699.6563,937.2188 699.7969,937.4688 700.0156,937.6406 C700.1719,937.75 700.3594,937.7813 700.7813,937.7813 L702.5,937.7813 L702.5,944.2969 L700.7813,944.2969 C700.3438,944.2969 700.2188,944.3125 700.0625,944.4219 C699.8125,944.5781 699.6563,944.8594 699.6563,945.1563 C699.6563,945.4063 699.7969,945.6719 700.0156,945.8281 C700.1719,945.9531 700.375,946 700.7813,946 L705.9219,946 C706.6719,946 707.0313,945.7188 707.0313,945.1563 C707.0313,944.875 706.9219,944.625 706.6875,944.4531 C706.5156,944.3281 706.375,944.2969 705.9219,944.2969 L704.2031,944.2969 L704.2031,937.7813 Z " fill="#000000"/><text fill="#000000" font-family="Verdana" font-size="14" font-style="italic" lengthAdjust="spacing" textLength="64" x="720.75" y="945.8467">pool_tidy</text><line style="stroke:#000000;stroke-width:1.0;" x1="603" x2="875" y1="955" y2="955"/><line style="stroke:#000000;stroke-width:1.0;" x1="603" x2="875" y1="963" y2="963"/><ellipse cx="613" cy="976.6484" fill="#FFFFFF" rx="3" ry="3" style="stroke:#000000;stroke-width:1.0;"/><text fill="#000000" font-family="Verdana" font-size="14" lengthAdjust="spacing" textLength="250" x="620" y="979.9951">pool_tidy(SemResults): data.frame</text></g><!--class pool_cov--><g id="elem_pool_cov"><rect codeLine="50" fill="#FFFFFF" height="60.2969" id="pool_cov" rx="2.5" ry="2.5" style="stroke:#000000;stroke-width:1.0;" width="213" x="911.5" y="927"/><ellipse cx="982.75" cy="941" fill="#FFFFFF" rx="9" ry="9" style="stroke:#000000;stroke-width:1.0;"/><path d="M983.7031,937.7813 L985.4219,937.7813 C985.8125,937.7813 986,937.75 986.125,937.6719 C986.3906,937.5156 986.5313,937.2344 986.5313,936.9375 C986.5313,936.6719 986.4219,936.4063 986.1875,936.2344 C986.0156,936.125 985.875,936.0938 985.4219,936.0938 L980.2813,936.0938 C979.8438,936.0938 979.7188,936.1094 979.5625,936.2031 C979.3125,936.3594 979.1563,936.6563 979.1563,936.9375 C979.1563,937.2188 979.2969,937.4688 979.5156,937.6406 C979.6719,937.75 979.8594,937.7813 980.2813,937.7813 L982,937.7813 L982,944.2969 L980.2813,944.2969 C979.8438,944.2969 979.7188,944.3125 979.5625,944.4219 C979.3125,944.5781 979.1563,944.8594 979.1563,945.1563 C979.1563,945.4063 979.2969,945.6719 979.5156,945.8281 C979.6719,945.9531 979.875,946 980.2813,946 L985.4219,946 C986.1719,946 986.5313,945.7188 986.5313,945.1563 C986.5313,944.875 986.4219,944.625 986.1875,944.4531 C986.0156,944.3281 985.875,944.2969 985.4219,944.2969 L983.7031,944.2969 L983.7031,937.7813 Z " fill="#000000"/><text fill="#000000" font-family="Verdana" font-size="14" font-style="italic" lengthAdjust="spacing" textLength="63" x="1000.25" y="945.8467">pool_cov</text><line style="stroke:#000000;stroke-width:1.0;" x1="912.5" x2="1123.5" y1="955" y2="955"/><line style="stroke:#000000;stroke-width:1.0;" x1="912.5" x2="1123.5" y1="963" y2="963"/><ellipse cx="922.5" cy="976.6484" fill="#FFFFFF" rx="3" ry="3" style="stroke:#000000;stroke-width:1.0;"/><text fill="#000000" font-family="Verdana" font-size="14" lengthAdjust="spacing" textLength="189" x="929.5" y="979.9951">pool_cov(SemResults): list</text></g><!--class set_sem--><g id="elem_set_sem"><rect codeLine="54" fill="#FFFFFF" height="60.2969" id="set_sem" rx="2.5" ry="2.5" style="stroke:#000000;stroke-width:1.0;" width="475" x="501.5" y="166"/><ellipse cx="706.25" cy="180" fill="#FFFFFF" rx="9" ry="9" style="stroke:#000000;stroke-width:1.0;"/><path d="M707.2031,176.7813 L708.9219,176.7813 C709.3125,176.7813 709.5,176.75 709.625,176.6719 C709.8906,176.5156 710.0313,176.2344 710.0313,175.9375 C710.0313,175.6719 709.9219,175.4063 709.6875,175.2344 C709.5156,175.125 709.375,175.0938 708.9219,175.0938 L703.7813,175.0938 C703.3438,175.0938 703.2188,175.1094 703.0625,175.2031 C702.8125,175.3594 702.6563,175.6563 702.6563,175.9375 C702.6563,176.2188 702.7969,176.4688 703.0156,176.6406 C703.1719,176.75 703.3594,176.7813 703.7813,176.7813 L705.5,176.7813 L705.5,183.2969 L703.7813,183.2969 C703.3438,183.2969 703.2188,183.3125 703.0625,183.4219 C702.8125,183.5781 702.6563,183.8594 702.6563,184.1563 C702.6563,184.4063 702.7969,184.6719 703.0156,184.8281 C703.1719,184.9531 703.375,185 703.7813,185 L708.9219,185 C709.6719,185 710.0313,184.7188 710.0313,184.1563 C710.0313,183.875 709.9219,183.625 709.6875,183.4531 C709.5156,183.3281 709.375,183.2969 708.9219,183.2969 L707.2031,183.2969 L707.2031,176.7813 Z " fill="#000000"/><text fill="#000000" font-family="Verdana" font-size="14" font-style="italic" lengthAdjust="spacing" textLength="58" x="723.75" y="184.8467">set_sem</text><line style="stroke:#000000;stroke-width:1.0;" x1="502.5" x2="975.5" y1="194" y2="194"/><line style="stroke:#000000;stroke-width:1.0;" x1="502.5" x2="975.5" y1="202" y2="202"/><ellipse cx="512.5" cy="215.6484" fill="#FFFFFF" rx="3" ry="3" style="stroke:#000000;stroke-width:1.0;"/><text fill="#000000" font-family="Verdana" font-size="14" lengthAdjust="spacing" textLength="451" x="519.5" y="218.9951">set_sem(data, method, conf_int, conf_level): SemImputedData</text></g><!--class run_sem--><g id="elem_run_sem"><rect codeLine="58" fill="#FFFFFF" height="60.2969" id="run_sem" rx="2.5" ry="2.5" style="stroke:#000000;stroke-width:1.0;" width="432" x="523" y="522"/><ellipse cx="704.75" cy="536" fill="#FFFFFF" rx="9" ry="9" style="stroke:#000000;stroke-width:1.0;"/><path d="M705.7031,532.7813 L707.4219,532.7813 C707.8125,532.7813 708,532.75 708.125,532.6719 C708.3906,532.5156 708.5313,532.2344 708.5313,531.9375 C708.5313,531.6719 708.4219,531.4063 708.1875,531.2344 C708.0156,531.125 707.875,531.0938 707.4219,531.0938 L702.2813,531.0938 C701.8438,531.0938 701.7188,531.1094 701.5625,531.2031 C701.3125,531.3594 701.1563,531.6563 701.1563,531.9375 C701.1563,532.2188 701.2969,532.4688 701.5156,532.6406 C701.6719,532.75 701.8594,532.7813 702.2813,532.7813 L704,532.7813 L704,539.2969 L702.2813,539.2969 C701.8438,539.2969 701.7188,539.3125 701.5625,539.4219 C701.3125,539.5781 701.1563,539.8594 701.1563,540.1563 C701.1563,540.4063 701.2969,540.6719 701.5156,540.8281 C701.6719,540.9531 701.875,541 702.2813,541 L707.4219,541 C708.1719,541 708.5313,540.7188 708.5313,540.1563 C708.5313,539.875 708.4219,539.625 708.1875,539.4531 C708.0156,539.3281 707.875,539.2969 707.4219,539.2969 L705.7031,539.2969 L705.7031,532.7813 Z " fill="#000000"/><text fill="#000000" font-family="Verdana" font-size="14" font-style="italic" lengthAdjust="spacing" textLength="61" x="722.25" y="540.8467">run_sem</text><line style="stroke:#000000;stroke-width:1.0;" x1="524" x2="954" y1="550" y2="550"/><line style="stroke:#000000;stroke-width:1.0;" x1="524" x2="954" y1="558" y2="558"/><ellipse cx="534" cy="571.6484" fill="#FFFFFF" rx="3" ry="3" style="stroke:#000000;stroke-width:1.0;"/><text fill="#000000" font-family="Verdana" font-size="14" lengthAdjust="spacing" textLength="408" x="541" y="574.9951">run_sem(data, method, conf_int, conf_level): SemResults</text></g><!--class list--><g id="elem_list"><rect fill="#FFFFFF" height="44" id="list" rx="2.5" ry="2.5" style="stroke:#000000;stroke-width:1.0;" width="50" x="993" y="1129"/><ellipse cx="1006" cy="1143" fill="#FFFFFF" rx="9" ry="9" style="stroke:#000000;stroke-width:1.0;"/><path d="M1008.3438,1138.6719 C1007.4063,1138.2344 1006.8125,1138.0938 1005.9375,1138.0938 C1003.3125,1138.0938 1001.3125,1140.1719 1001.3125,1142.8906 L1001.3125,1144.0156 C1001.3125,1146.5938 1003.4219,1148.4844 1006.3125,1148.4844 C1007.5313,1148.4844 1008.6875,1148.1875 1009.4375,1147.6406 C1010.0156,1147.2344 1010.3438,1146.7813 1010.3438,1146.3906 C1010.3438,1145.9375 1009.9531,1145.5469 1009.4844,1145.5469 C1009.2656,1145.5469 1009.0625,1145.625 1008.875,1145.8125 C1008.4219,1146.2969 1008.4219,1146.2969 1008.2344,1146.3906 C1007.8125,1146.6563 1007.125,1146.7813 1006.3594,1146.7813 C1004.3125,1146.7813 1003.0156,1145.6875 1003.0156,1143.9844 L1003.0156,1142.8906 C1003.0156,1141.1094 1004.2656,1139.7969 1006,1139.7969 C1006.5781,1139.7969 1007.1875,1139.9531 1007.6563,1140.2031 C1008.1406,1140.4844 1008.3125,1140.7031 1008.4063,1141.1094 C1008.4688,1141.5156 1008.5,1141.6406 1008.6406,1141.7656 C1008.7813,1141.9063 1009.0156,1142.0156 1009.2344,1142.0156 C1009.5,1142.0156 1009.7656,1141.875 1009.9375,1141.6563 C1010.0469,1141.5 1010.0781,1141.3125 1010.0781,1140.8906 L1010.0781,1139.4688 C1010.0781,1139.0313 1010.0625,1138.9063 1009.9688,1138.75 C1009.8125,1138.4844 1009.5313,1138.3438 1009.2344,1138.3438 C1008.9375,1138.3438 1008.7344,1138.4375 1008.5156,1138.75 L1008.3438,1138.6719 Z " fill="#000000"/><text fill="#000000" font-family="Verdana" font-size="14" lengthAdjust="spacing" textLength="22" x="1018" y="1147.8467">list</text><line style="stroke:#000000;stroke-width:1.0;" x1="994" x2="1042" y1="1157" y2="1157"/><line style="stroke:#000000;stroke-width:1.0;" x1="994" x2="1042" y1="1165" y2="1165"/></g><!--link SemResults to pool_sem--><g id="link_SemResults_pool_sem"><path codeLine="63" d="M575.407,850.026 C527.108,877.933 482.9781,903.4322 447.6621,923.8382 " fill="none" id="SemResults-to-pool_sem" style="stroke:#000000;stroke-width:1.0;"/><polygon fill="#000000" points="442.467,926.84,452.2609,925.8007,446.7963,924.3385,448.2585,918.8739,442.467,926.84" style="stroke:#000000;stroke-width:1.0;"/><polygon fill="#000000" points="515.6707,891.0679,524.9728,889.0873,522.0321,883.998,515.6707,891.0679" style="stroke:#000000;stroke-width:1.0;"/><text fill="#000000" font-family="Verdana" font-size="13" lengthAdjust="spacing" textLength="30" x="529" y="893.0669">uses</text></g><!--link pool_sem to PooledSEMResults--><g id="link_pool_sem_PooledSEMResults"><path codeLine="64" d="M388.507,987.161 C386.044,1007.722 383.3216,1030.4466 380.0186,1058.0196 " fill="none" id="pool_sem-to-PooledSEMResults" style="stroke:#000000;stroke-width:1.0;stroke-dasharray:7.0,7.0;"/><polygon fill="#000000" points="379.305,1063.977,384.3471,1055.5167,379.8997,1059.0125,376.4039,1054.5651,379.305,1063.977" style="stroke:#000000;stroke-width:1.0;"/><polygon fill="#000000" points="389.4053,1030.5309,393.3992,1021.8996,387.5631,1021.2005,389.4053,1030.5309" style="stroke:#000000;stroke-width:1.0;"/><text fill="#000000" font-family="Verdana" font-size="13" lengthAdjust="spacing" textLength="46" x="399" y="1030.0669">returns</text></g><!--link SemResults to pool_tidy--><g id="link_SemResults_pool_tidy"><path codeLine="66" d="M739,850.172 C739,877.954 739,900.309 739,920.667 " fill="none" id="SemResults-to-pool_tidy" style="stroke:#000000;stroke-width:1.0;stroke-dasharray:7.0,7.0;"/><polygon fill="#000000" points="739,926.667,743,917.667,739,921.667,735,917.667,739,926.667" style="stroke:#000000;stroke-width:1.0;"/><polygon fill="#000000" points="744,893.5664,746.9389,884.5213,741.0611,884.5213,744,893.5664" style="stroke:#000000;stroke-width:1.0;"/><text fill="#000000" font-family="Verdana" font-size="13" lengthAdjust="spacing" textLength="30" x="753" y="893.0669">uses</text></g><!--link pool_tidy to frame--><g id="link_pool_tidy_frame"><path codeLine="67" d="M747.809,987.161 C759.598,1026.185 778.489,1088.7203 788.887,1123.1423 " fill="none" id="pool_tidy-to-frame" style="stroke:#000000;stroke-width:1.0;stroke-dasharray:7.0,7.0;"/><polygon fill="#000000" points="790.622,1128.886,791.8486,1119.1138,789.1762,1124.0996,784.1904,1121.4272,790.622,1128.886" style="stroke:#000000;stroke-width:1.0;"/><polygon fill="#000000" points="767.4459,1030.3528,767.6436,1020.8443,762.0169,1022.544,767.4459,1030.3528" style="stroke:#000000;stroke-width:1.0;"/><text fill="#000000" font-family="Verdana" font-size="13" lengthAdjust="spacing" textLength="46" x="775" y="1030.0669">returns</text></g><!--link SemResults to pool_cov--><g id="link_SemResults_pool_cov"><path codeLine="69" d="M870.738,850.172 C909.539,878.055 944.2697,903.0145 972.6197,923.3885 " fill="none" id="SemResults-to-pool_cov" style="stroke:#000000;stroke-width:1.0;stroke-dasharray:7.0,7.0;"/><polygon fill="#000000" points="977.492,926.89,972.5179,918.3895,973.4317,923.9721,967.8492,924.8859,977.492,926.89" style="stroke:#000000;stroke-width:1.0;"/><polygon fill="#000000" points="944.0603,891.4843,938.4303,883.8192,935.0001,888.5924,944.0603,891.4843" style="stroke:#000000;stroke-width:1.0;"/><text fill="#000000" font-family="Verdana" font-size="13" lengthAdjust="spacing" textLength="30" x="949" y="893.0669">uses</text></g><!--link pool_cov to list--><g id="link_pool_cov_list"><path codeLine="70" d="M1018,987.161 C1018,1026.185 1018,1088.464 1018,1122.886 " fill="none" id="pool_cov-to-list" style="stroke:#000000;stroke-width:1.0;stroke-dasharray:7.0,7.0;"/><polygon fill="#000000" points="1018,1128.886,1022,1119.886,1018,1123.886,1014,1119.886,1018,1128.886" style="stroke:#000000;stroke-width:1.0;"/><polygon fill="#000000" points="1023,1030.5664,1025.9389,1021.5213,1020.0611,1021.5213,1023,1030.5664" style="stroke:#000000;stroke-width:1.0;"/><text fill="#000000" font-family="Verdana" font-size="13" lengthAdjust="spacing" textLength="46" x="1032" y="1030.0669">returns</text></g><!--link SemImputedData to run_sem--><g id="link_SemImputedData_run_sem"><path codeLine="72" d="M739,445.066 C739,471.907 739,495.072 739,515.993 " fill="none" id="SemImputedData-to-run_sem" style="stroke:#000000;stroke-width:1.0;stroke-dasharray:7.0,7.0;"/><polygon fill="#000000" points="739,521.993,743,512.993,739,516.993,735,512.993,739,521.993" style="stroke:#000000;stroke-width:1.0;"/><polygon fill="#000000" points="744,488.5664,746.9389,479.5213,741.0611,479.5213,744,488.5664" style="stroke:#000000;stroke-width:1.0;"/><text fill="#000000" font-family="Verdana" font-size="13" lengthAdjust="spacing" textLength="30" x="753" y="488.0669">uses</text></g><!--link run_sem to SemResults--><g id="link_run_sem_SemResults"><path codeLine="73" d="M739,582.154 C739,602.464 739,624.795 739,652.579 " fill="none" id="run_sem-to-SemResults" style="stroke:#000000;stroke-width:1.0;stroke-dasharray:7.0,7.0;"/><polygon fill="#000000" points="739,658.579,743,649.579,739,653.579,735,649.579,739,658.579" style="stroke:#000000;stroke-width:1.0;"/><text fill="#000000" font-family="Verdana" font-size="13" lengthAdjust="spacing" textLength="46" x="740" y="625.0669">returns</text></g><!--link mids to set_sem--><g id="link_mids_set_sem"><path codeLine="75" d="M739,89.2 C739,113.12 739,137.6 739,159.7 " fill="none" id="mids-to-set_sem" style="stroke:#000000;stroke-width:1.0;"/><polygon fill="#000000" points="739,165.7,743,156.7,739,160.7,735,156.7,739,165.7" style="stroke:#000000;stroke-width:1.0;"/><polygon fill="#000000" points="744,132.5664,746.9389,123.5213,741.0611,123.5213,744,132.5664" style="stroke:#000000;stroke-width:1.0;"/><text fill="#000000" font-family="Verdana" font-size="13" lengthAdjust="spacing" textLength="30" x="753" y="132.0669">uses</text></g><!--link set_sem to SemImputedData--><g id="link_set_sem_SemImputedData"><path codeLine="76" d="M739,226.06 C739,246.957 739,270.054 739,296.847 " fill="none" id="set_sem-to-SemImputedData" style="stroke:#000000;stroke-width:1.0;stroke-dasharray:7.0,7.0;"/><polygon fill="#000000" points="739,302.847,743,293.847,739,297.847,735,293.847,739,302.847" style="stroke:#000000;stroke-width:1.0;"/><polygon fill="#000000" points="744,269.5664,746.9389,260.5213,741.0611,260.5213,744,269.5664" style="stroke:#000000;stroke-width:1.0;"/><text fill="#000000" font-family="Verdana" font-size="13" lengthAdjust="spacing" textLength="46" x="753" y="269.0669">returns</text></g><!--SRC=[hLNRQXin47tNLqpp4fSwIr_wq8KOMf908Iab_W2ZU6TZWLPhLhDsI-c_LrfTLjgDYLlY5qjpENFcZ4T-Hpji4FQI2yNOLdAjOOtDjsRV4rOtd3ZyPc0-7ofpBg4HbNRt1cdNLYMigHFg6QxXGl83v-h2kRUjgZT2KGbVsrOYLoRYxilz-ZPnIpoWBE5xts0djYRWO_7va_Fd71Qs-19SoIK4R7yQODwxlAvN6utDEGcbRVGHTIz9ipz9yzuM6k_SjOHxeScPK9DeEE6cgakm1Eywtc3e3EkNxOV1FABa2fwGxQHSKITFT-5vBY5XPniUwDZ3OVW-GyIzAJseQ3JwOMbKwzk7cL9JJz2BHFLhG_n9ueiQK4lSTF70JTS_H_CJqX5HpHr7GJiniR-5SbFwYv6t4siWwewUdBiuGgy96MMo6vEjq4GJZNJsBpRV2cQBNC8Dra8Xc63iQhv53NNRUI3DeXd2LCESufJ7tz29UKymh50PY3NaABQPeXwQdESR4RDqSy-pfLsHBC-B5DB-HRF9SvRZ-kSYhlh_lnwNy8YIasYLteczPiaxSbMrHtMr6WTGGg_Dc5R0egcmCSLglbGbT4XzfqmuIq6BOfLC8o2oqMG3nZ6yZcEdaiDOYtNRSSpoqt-8GDxB5r62ki6Vb8rmZDa5YHg5GKUCO2XSVbeseVGN]--></g></svg>